<svg xmlns="http://www.w3.org/2000/svg" viewBox="0 0 24 24" fill="#34C759">
  <path d="M12 2C6.477 2 2 5.833 2 10.562c0 2.47 1.224 4.694 3.178 6.258-.18 1.255-.671 2.407-1.42 3.359-.167.213.06.51.314.414 1.781-.671 3.157-1.552 4.15-2.29.958.275 1.985.425 3.078.425 5.523 0 10-3.833 10-8.561C21.3 5.833 16.823 2 12 2Zm-4.1 7.654a1.246 1.246 0 1 1 0 2.492 1.246 1.246 0 0 1 0-2.492Zm4.1 0a1.246 1.246 0 1 1 0 2.492 1.246 1.246 0 0 1 0-2.492Zm4.1 0a1.246 1.246 0 1 1 0 2.492 1.246 1.246 0 0 1 0-2.492Z"/>
</svg>
