<svg xmlns="http://www.w3.org/2000/svg" viewBox="0 0 24 24" fill="#3370FF">
  <path d="M11.6 1.6c2.27 0 4.29.68 5.86 1.86l-3.33 3.33a4.9 4.9 0 0 0-2.53-.68c-1.19 0-2.28.43-3.12 1.15L5.16 3.93A9.66 9.66 0 0 1 11.6 1.6Zm7.23 3.91A9.65 9.65 0 0 1 20.4 11.6c0 .8-.1 1.57-.3 2.3l-4.55-1.22c.22-.32.35-.72.35-1.16 0-1.11-.9-2.01-2.01-2.01-.44 0-.84.13-1.16.35l-1.22-4.55a9.65 9.65 0 0 1 6.32.2ZM3.91 5.16l3.33 3.33a4.9 4.9 0 0 0-.68 2.53c0 .94.26 1.82.71 2.57l-3.31 3.31A9.64 9.64 0 0 1 1.6 11.6c0-2.27.79-4.36 2.31-6.44Zm4.17 9.63c.86.76 1.98 1.22 3.22 1.22.44 0 .87-.06 1.27-.18l1.22 4.54c-.39.08-.8.13-1.2.13-2.55 0-4.86-.97-6.6-2.56Z"/>
</svg>
