<svg xmlns="http://www.w3.org/2000/svg" width="18" height="18" viewBox="0 0 24 24" fill="none">
  <rect x="5.1" y="5.1" width="13.8" height="13.8" rx="3.4" fill="#2FD98C"/>
  <path d="m15.8 6-.5-2.4c-.2-1-1-1.6-2-1.6h-2.7a2 2 0 0 0-2 1.6L8.2 6" stroke="#0F1914" stroke-width="1.83" stroke-linecap="round" stroke-linejoin="round"/>
  <rect width="12" height="12" x="6" y="6" rx="2" stroke="#0F1914" stroke-width="1.83" stroke-linecap="round" stroke-linejoin="round"/>
  <path d="m8.2 18 .5 2.4c.2 1 1 1.6 2 1.6h2.7a2 2 0 0 0 2-1.6l.5-2.4" stroke="#0F1914" stroke-width="1.83" stroke-linecap="round" stroke-linejoin="round"/>
  <path d="M6 12h3l2 2 2.2-4 1.8 2h3" stroke="#0F1914" stroke-width="1.83" stroke-linecap="round" stroke-linejoin="round"/>
</svg>
