<svg xmlns="http://www.w3.org/2000/svg" width="20" height="20" viewBox="0 0 24 24" fill="none">
  <rect x="2.2" y="6.2" width="19.6" height="14.8" rx="4.2" fill="#8B6BFF"/>
  <path d="M8 7V5a2 2 0 0 1 2-2h4a2 2 0 0 1 2 2v2" stroke="#24153F" stroke-width="1.83" stroke-linecap="round" stroke-linejoin="round"/>
  <path d="M8 21a2 2 0 0 0 2-2v-8a4 4 0 0 0-8 0v8a2 2 0 0 0 2 2h16a2 2 0 0 0 2-2v-8a4 4 0 0 0-4-4H6" stroke="#24153F" stroke-width="1.83" stroke-linecap="round" stroke-linejoin="round"/>
  <path d="M2 13h20" stroke="#24153F" stroke-width="1.83" stroke-linecap="round" stroke-linejoin="round"/>
  <path d="M14 15v-4" stroke="#24153F" stroke-width="1.83" stroke-linecap="round" stroke-linejoin="round"/>
  <path d="M18 15v-4" stroke="#24153F" stroke-width="1.83" stroke-linecap="round" stroke-linejoin="round"/>
</svg>
