<svg xmlns="http://www.w3.org/2000/svg" viewBox="0 0 800 480" width="800" height="480">
  <defs>
    <linearGradient id="bg" x1="0" y1="0" x2="1" y2="1">
      <stop offset="0%" stop-color="#0f0a08"/>
      <stop offset="50%" stop-color="#1a120d"/>
      <stop offset="100%" stop-color="#0a0908"/>
    </linearGradient>
    <linearGradient id="card" x1="0" y1="0" x2="0" y2="1">
      <stop offset="0%" stop-color="#241914"/>
      <stop offset="100%" stop-color="#16110d"/>
    </linearGradient>
    <linearGradient id="warm" x1="0" y1="0" x2="1" y2="1">
      <stop offset="0%" stop-color="#ffdb9f"/>
      <stop offset="100%" stop-color="#ff8e5a"/>
    </linearGradient>
    <linearGradient id="mint" x1="0" y1="0" x2="1" y2="1">
      <stop offset="0%" stop-color="#b8f2d4"/>
      <stop offset="100%" stop-color="#50b591"/>
    </linearGradient>
    <linearGradient id="rose" x1="0" y1="0" x2="1" y2="1">
      <stop offset="0%" stop-color="#ffb8a3"/>
      <stop offset="100%" stop-color="#ff7163"/>
    </linearGradient>
    <linearGradient id="sky" x1="0" y1="0" x2="1" y2="1">
      <stop offset="0%" stop-color="#cae9ff"/>
      <stop offset="100%" stop-color="#78abfc"/>
    </linearGradient>
    <linearGradient id="violet" x1="0" y1="0" x2="1" y2="1">
      <stop offset="0%" stop-color="#e2cdff"/>
      <stop offset="100%" stop-color="#af7fff"/>
    </linearGradient>
    <radialGradient id="glow1" cx="0.5" cy="0.5" r="0.5">
      <stop offset="0%" stop-color="#ffb36a" stop-opacity="0.15"/>
      <stop offset="100%" stop-color="#ffb36a" stop-opacity="0"/>
    </radialGradient>
    <radialGradient id="glow2" cx="0.5" cy="0.5" r="0.5">
      <stop offset="0%" stop-color="#4db28f" stop-opacity="0.12"/>
      <stop offset="100%" stop-color="#4db28f" stop-opacity="0"/>
    </radialGradient>
    <filter id="shadow">
      <feDropShadow dx="0" dy="4" stdDeviation="8" flood-color="#000" flood-opacity="0.3"/>
    </filter>
    <style>
      .display{font-family:"SF Pro Display","Avenir Next","Segoe UI",sans-serif}
      .eyebrow{font-size:11px;font-weight:700;letter-spacing:1.8px;fill:#f0b87f}
      .headline{font-size:28px;font-weight:700;fill:#fff5e8}
      .title{font-size:18px;font-weight:700;fill:#fff2e1}
      .body{font-size:12.5px;font-weight:600;fill:#d5b9a2}
      .tag{font-size:10px;font-weight:700}
      @keyframes pulse{0%,100%{opacity:0.5}50%{opacity:1}}
      @keyframes float{0%,100%{transform:translateY(0)}50%{transform:translateY(-3px)}}
      @keyframes glow{0%,100%{filter:brightness(1)}50%{filter:brightness(1.2)}}
      .pulse{animation:pulse 4s ease-in-out infinite}
      .float{animation:float 3s ease-in-out infinite}
      .glow{animation:glow 3s ease-in-out infinite}
    </style>
  </defs>

  <rect width="800" height="480" rx="20" fill="url(#bg)"/>
  <circle cx="150" cy="100" r="200" fill="url(#glow1)"/>
  <circle cx="650" cy="350" r="180" fill="url(#glow2)"/>

  <g transform="translate(18 18)" filter="url(#shadow)">
    <rect width="500" height="160" rx="22" fill="url(#card)" stroke="#4a3228" stroke-width="1.5"/>
    <text x="28" y="36" class="display eyebrow">CORE ADVANTAGES</text>
    <text x="28" y="76" class="display headline">Built for long-term use, not just chat</text>
    <text x="28" y="104" class="display body">Persistent memory, experience learning, long-task engine, parallel subagents</text>
    <text x="28" y="128" class="display body">A complete intelligent collaboration system</text>
  </g>

  <g transform="translate(534 18)" filter="url(#shadow)" class="float">
    <rect width="248" height="138" rx="22" fill="url(#card)" stroke="#4a3228" stroke-width="1.5"/>
    <rect x="0" y="0" width="4" height="138" rx="2" fill="url(#warm)" class="glow"/>
    <text x="22" y="34" class="display title">Persistent Memory</text>
    <text x="22" y="58" class="display body">LanceDB vector retrieval</text>
    <text x="22" y="78" class="display body">Cross-session preservation</text>
    <rect x="22" y="100" width="68" height="22" rx="11" fill="#ffb36a" fill-opacity="0.15" stroke="#ffb36a" stroke-opacity="0.4"/>
    <text x="56" y="115" text-anchor="middle" class="display tag" fill="#ffd9b1">Persistent</text>
    <rect x="98" y="100" width="78" height="22" rx="11" fill="#ffb36a" fill-opacity="0.15" stroke="#ffb36a" stroke-opacity="0.4"/>
    <text x="137" y="115" text-anchor="middle" class="display tag" fill="#ffd9b1">Smart Recall</text>
  </g>

  <g transform="translate(18 196)" filter="url(#shadow)">
    <rect width="244" height="118" rx="22" fill="url(#card)" stroke="#4a3228" stroke-width="1.5"/>
    <rect x="0" y="0" width="4" height="118" rx="2" fill="url(#mint)" class="glow"/>
    <text x="20" y="34" class="display title">Experience Engine</text>
    <text x="20" y="58" class="display body">Auto-extract lessons</text>
    <text x="20" y="78" class="display body">Similar task injection</text>
    <text x="20" y="98" class="display body">Quality scoring system</text>
  </g>

  <g transform="translate(278 196)" filter="url(#shadow)">
    <rect width="240" height="118" rx="22" fill="url(#card)" stroke="#4a3228" stroke-width="1.5"/>
    <rect x="0" y="0" width="4" height="118" rx="2" fill="url(#rose)" class="glow"/>
    <text x="20" y="34" class="display title">Long-Task Engine</text>
    <text x="20" y="58" class="display body">Trajectory compression</text>
    <text x="20" y="78" class="display body">Sufficiency checks</text>
    <text x="20" y="98" class="display body">Stable execution</text>
  </g>

  <g transform="translate(534 174)" filter="url(#shadow)" class="float" style="animation-delay: 0.5s">
    <rect width="248" height="140" rx="22" fill="url(#card)" stroke="#4a3228" stroke-width="1.5"/>
    <rect x="0" y="0" width="4" height="140" rx="2" fill="url(#sky)" class="glow"/>
    <text x="22" y="34" class="display title">Parallel Subagents</text>
    <text x="22" y="58" class="display body">Background execution</text>
    <text x="22" y="78" class="display body">Progress transparency</text>
    <text x="22" y="98" class="display body">Cancel & resume support</text>
  </g>

  <g transform="translate(18 332)" filter="url(#shadow)">
    <rect width="244" height="128" rx="22" fill="url(#card)" stroke="#4a3228" stroke-width="1.5"/>
    <rect x="0" y="0" width="4" height="128" rx="2" fill="url(#violet)" class="glow"/>
    <text x="20" y="34" class="display title">Coding Agents</text>
    <text x="20" y="58" class="display body">Codex / Claude Code</text>
    <text x="20" y="78" class="display body">OpenCode native</text>
    <text x="20" y="98" class="display body">Main & sub-agents</text>
  </g>

  <g transform="translate(278 332)" filter="url(#shadow)">
    <rect width="240" height="128" rx="22" fill="url(#card)" stroke="#4a3228" stroke-width="1.5"/>
    <rect x="0" y="0" width="4" height="128" rx="2" fill="url(#warm)" class="glow"/>
    <text x="20" y="34" class="display title">MCP Ecosystem</text>
    <text x="20" y="58" class="display body">Claude Desktop compatible</text>
    <text x="20" y="78" class="display body">Smart tool routing</text>
    <text x="20" y="98" class="display body">Auto schema optimization</text>
  </g>

  <g transform="translate(534 332)" filter="url(#shadow)">
    <rect width="248" height="128" rx="22" fill="url(#card)" stroke="#4a3228" stroke-width="1.5"/>
    <rect x="0" y="0" width="4" height="128" rx="2" fill="url(#sky)" class="glow"/>
    <text x="22" y="34" class="display title">9 Platforms + Desktop</text>
    <text x="22" y="58" class="display body">One capability, multi-delivery</text>
    <text x="22" y="78" class="display body">Screen, click, type, scroll</text>
    <text x="22" y="98" class="display body">Shared Bao Core</text>
  </g>

  <g transform="translate(726 46)" class="pulse">
    <circle r="9" fill="#ffb36a" filter="url(#shadow)"/>
    <circle r="5" fill="#fff"/>
  </g>
</svg>
